# xmcd
#
# Track frame offsets: 
#        150
#        12091
#        28689
#        48653
#        72755
#        82893
#        95218
#        108473
#        125065
#        135370
#        146314
#
# Disc length: 2463 seconds
#
# Revision: 1
# Processed by: cddbd v1.5.2PL0 Copyright (c) Steve Scherf et al.
# Submitted via: ExactAudioCopy v1.0b1
#
DISCID=91099d0b
DTITLE=Mountain Heart - The Journey
DYEAR=2001
DGENRE=Bluegrass
TTITLE0=Wings Of Love
TTITLE1=The Scars In His Hands
TTITLE2=John 4:22
TTITLE3=The Hill Lone And Gray
TTITLE4=What A Time In Heaven
TTITLE5=The Gospel Train
TTITLE6=There's A Higher Power
TTITLE7=He Is I Am
TTITLE8=Travelin' Shoes
TTITLE9=I'll Sail Away
TTITLE10=Not Long For This Earth
EXTD=
EXTT0=
EXTT1=
EXTT2=
EXTT3=
EXTT4=
EXTT5=
EXTT6=
EXTT7=
EXTT8=
EXTT9=
EXTT10=
PLAYORDER=
